<svg width="52" height="52" viewBox="0 0 52 52" fill="none" xmlns="http://www.w3.org/2000/svg">
<path d="M40.0792 10.6796C40.0792 9.6912 39.7084 8.74331 39.0483 8.04441C38.3883 7.34551 37.4931 6.95288 36.5596 6.95288H15.4415C14.5081 6.95288 13.6128 7.34551 12.9528 8.04441C12.2927 8.74331 11.9219 9.6912 11.9219 10.6796V11.9218H40.0792V10.6796Z" fill="#A09F9F"/>
<path fill-rule="evenodd" clip-rule="evenodd" d="M10.7626 14.5719H41.2388C42.2492 14.5719 43.2181 15.0535 43.9325 15.9108C44.647 16.7681 45.0484 17.9309 45.0484 19.1432V40.4766C45.0484 41.6891 44.647 42.8519 43.9325 43.7091C43.2181 44.5664 42.2492 45.0481 41.2388 45.0481H10.7626C9.7523 45.0481 8.78334 44.5664 8.06892 43.7091C7.35448 42.8519 6.95312 41.6891 6.95312 40.4766V19.1432C6.95312 17.9309 7.35448 16.7681 8.06892 15.9108C8.78334 15.0535 9.7523 14.5719 10.7626 14.5719ZM31.5817 31.2579C32.42 30.6385 32.42 29.2149 31.5817 28.5955L24.333 23.2386C23.4308 22.572 22.2513 23.3261 22.2513 24.5699V35.2836C22.2513 36.5273 23.4308 37.2814 24.333 36.6148L31.5817 31.2579Z" fill="#A09F9F"/>
<path d="M15 6C15.7595 6.00014 16.4193 6.42411 16.7578 7.04785H22.1904C24.4606 7.04785 26.3589 8.63648 26.8359 10.7627H36.4766C39.1062 10.7629 41.2381 12.8948 41.2383 15.5244V24.8467C42.2976 24.4285 43.0479 23.3982 43.0479 22.1904V16.7588C42.4239 16.4203 42.0001 15.7598 42 15C42 13.8954 42.8954 13 44 13C45.1046 13 46 13.8954 46 15C45.9999 15.7598 45.5761 16.4203 44.9521 16.7588V22.1904C44.9521 24.4603 43.3641 26.3576 41.2383 26.835V36.4775C41.2381 39.1072 39.1062 41.2391 36.4766 41.2393H26.1514C26.5354 42.2121 27.4383 42.9236 28.5186 43.0332L28.8105 43.0479H35.2422C35.5807 42.4241 36.2405 42.0001 37 42C38.1046 42 39 42.8954 39 44C39 45.1046 38.1046 46 37 46C36.2405 45.9999 35.5807 45.5759 35.2422 44.9521H28.8105L28.5654 44.9463C26.4053 44.8368 24.6265 43.2876 24.166 41.2393H15.5234C12.8938 41.2391 10.7619 39.1072 10.7617 36.4775V27.1533C9.70223 27.5711 8.95226 28.6027 8.95215 29.8105V35.2402C9.57635 35.5787 9.99995 36.2401 10 37C10 38.1046 9.10457 39 8 39C6.89543 39 6 38.1046 6 37C6.00005 36.2401 6.42365 35.5787 7.04785 35.2402V29.8105C7.04798 27.5407 8.63595 25.6423 10.7617 25.165V15.5244C10.7619 12.8948 12.8938 10.7629 15.5234 10.7627H24.8477C24.4297 9.70294 23.3986 8.95215 22.1904 8.95215H16.7578C16.4193 9.57589 15.7595 9.99986 15 10C13.8954 10 13 9.10457 13 8C13 6.89543 13.8954 6 15 6Z" fill="#101111"/>
<path d="M27.6121 33.8912H17.8285C17.2036 33.8912 16.794 33.2372 17.067 32.6749L24.1847 18.0124C24.4905 17.3824 25.3853 17.375 25.7016 17.9997L33.7709 33.9415C33.9721 34.339 34.5718 34.1958 34.5718 33.7503V21.9184" stroke="#A09F9F" stroke-width="2.85714" stroke-linecap="round"/>
<circle cx="34.5711" cy="16.9524" r="1.42857" fill="#A09F9F"/>
</svg>
